<?xml version="1.0" encoding="UTF-8"?>
<svg version="1.1" xmlns="http://www.w3.org/2000/svg" width="206" height="298">
<path d="M0 0 C0.65597672 0.00141495 1.31195343 0.0028299 1.98780823 0.00428772 C4.05572327 0.00982594 6.12352467 0.02236623 8.19140625 0.03515625 C9.60481613 0.04017926 11.01822773 0.04474075 12.43164062 0.04882812 C15.87243193 0.05977499 19.31315797 0.07699587 22.75390625 0.09765625 C23.88974081 3.81493299 23.42060651 5.56817334 21.75390625 9.09765625 C21.09390625 9.09765625 20.43390625 9.09765625 19.75390625 9.09765625 C19.54765625 9.86078125 19.34140625 10.62390625 19.12890625 11.41015625 C13.5336227 26.4156894 3.10273409 38.65852291 -11.44921875 45.6328125 C-19.86578343 49.05328843 -30.24064927 52.99226341 -39.24609375 50.09765625 C-43.07210835 47.62506178 -46.67946387 44.92903151 -50.24609375 42.09765625 C-50.06022705 42.71995117 -49.87436035 43.34224609 -49.68286133 43.98339844 C-46.38546041 55.05941385 -43.13551947 66.14080243 -40.30859375 77.34765625 C-40.09759033 78.17362305 -39.88658691 78.99958984 -39.66918945 79.85058594 C-39.47929443 80.61790039 -39.28939941 81.38521484 -39.09375 82.17578125 C-38.84637085 83.17206543 -38.84637085 83.17206543 -38.59399414 84.18847656 C-38.24609375 86.09765625 -38.24609375 86.09765625 -38.24609375 90.09765625 C-36.03729991 89.51606908 -33.82909151 88.93225851 -31.62109375 88.34765625 C-30.93595703 88.17008789 -30.25082031 87.99251953 -29.54492188 87.80957031 C-26.29009688 86.9561162 -23.12042813 86.05368814 -19.94140625 84.94140625 C-2.85111927 79.09143027 17.89409612 80.2538285 34.16625977 87.97460938 C42.09101982 91.88344981 48.01389531 95.72712601 53.37890625 102.97265625 C54.13429687 103.98070313 54.8896875 104.98875 55.66796875 106.02734375 C58.39351045 110.03909615 60.41023702 113.77207495 61.62890625 118.47265625 C60.35829103 123.73663361 57.11800024 125.09607254 52.75390625 128.03515625 C34.6468536 140.48375495 20.9580226 166.13924584 16.34765625 187.35546875 C12.73986114 211.75155315 16.50761133 234.93903899 27.625 256.79296875 C27.9461377 257.42541504 28.26727539 258.05786133 28.59814453 258.70947266 C29.51754846 260.50237986 30.45744276 262.28473605 31.3984375 264.06640625 C32.75390625 267.09765625 32.75390625 267.09765625 32.75390625 271.09765625 C27.1366828 279.19785528 17.77195928 288.25760569 7.75390625 290.09765625 C0.14066205 290.94506682 -6.73301486 289.51100258 -14.0559082 287.60888672 C-32.90805666 282.72022568 -46.67262739 286.96762487 -63.91674805 294.77368164 C-73.75364061 299.21017118 -82.67485467 299.30348067 -92.859375 295.5625 C-97.01098793 293.76681967 -101.0428342 291.8027275 -105.05859375 289.72265625 C-105.76387207 289.35986572 -106.46915039 288.9970752 -107.19580078 288.62329102 C-112.09221864 285.99373328 -116.16935686 282.86781741 -120.24609375 279.09765625 C-118.71724642 275.90781334 -117.00281559 273.52764593 -114.68359375 270.84765625 C-95.8025571 247.409128 -90.53884369 218.58166436 -93.7109375 189.109375 C-96.40445261 168.9176697 -105.25937713 151.42092705 -118.59375 136.171875 C-120.24609375 134.09765625 -120.24609375 134.09765625 -120.24609375 132.09765625 C-121.12974609 131.70126953 -121.12974609 131.70126953 -122.03125 131.296875 C-124.32247802 130.05629828 -125.82254631 128.72146523 -127.68359375 126.91015625 C-132.90186575 122.19687832 -139.00474264 119.22784606 -145.24609375 116.09765625 C-145.56636636 112.93426191 -145.45706805 111.43357117 -143.7421875 108.703125 C-143.06285156 107.90519531 -142.38351563 107.10726562 -141.68359375 106.28515625 C-140.94625 105.41375 -140.20890625 104.54234375 -139.44921875 103.64453125 C-138.7221875 102.8040625 -137.99515625 101.96359375 -137.24609375 101.09765625 C-136.6840625 100.4015625 -136.12203125 99.70546875 -135.54296875 98.98828125 C-126.9233814 88.52761699 -114.92844749 78.45044195 -101.24609375 76.09765625 C-81.05240894 74.35094512 -63.68284445 82.81944427 -45.24609375 90.09765625 C-49.06611792 75.55623828 -55.00199752 61.2670392 -62.88110352 48.43481445 C-64.38633744 45.85752875 -64.62450532 44.42346658 -64.55859375 41.47265625 C-64.55472656 40.71726563 -64.55085938 39.961875 -64.546875 39.18359375 C-64.24609375 37.09765625 -64.24609375 37.09765625 -62.24609375 34.09765625 C-60.60833984 33.70126953 -60.60833984 33.70126953 -58.9375 33.296875 C-54.47179388 31.84611121 -52.73631164 29.62840372 -50.18359375 25.91015625 C-49.31583635 24.72602559 -48.44735264 23.54242683 -47.578125 22.359375 C-46.79905554 21.27337132 -46.02151173 20.18627013 -45.24609375 19.09765625 C-37.25244855 7.92266107 -24.25385863 2.76285304 -11.00488281 0.55834961 C-7.28958771 0.10298706 -3.7411522 -0.01605645 0 0 Z " fill="#F4DE99" transform="translate(145.24609375,-0.09765625)"/>
<path d="M0 0 C0.65597672 0.00141495 1.31195343 0.0028299 1.98780823 0.00428772 C4.05572327 0.00982594 6.12352467 0.02236623 8.19140625 0.03515625 C9.60481613 0.04017926 11.01822773 0.04474075 12.43164062 0.04882812 C15.87243193 0.05977499 19.31315797 0.07699587 22.75390625 0.09765625 C23.88974081 3.81493299 23.42060651 5.56817334 21.75390625 9.09765625 C21.09390625 9.09765625 20.43390625 9.09765625 19.75390625 9.09765625 C19.54765625 9.86078125 19.34140625 10.62390625 19.12890625 11.41015625 C13.5336227 26.4156894 3.10273409 38.65852291 -11.44921875 45.6328125 C-19.86578343 49.05328843 -30.24064927 52.99226341 -39.24609375 50.09765625 C-43.07210835 47.62506178 -46.67946387 44.92903151 -50.24609375 42.09765625 C-50.06022705 42.71995117 -49.87436035 43.34224609 -49.68286133 43.98339844 C-46.38546041 55.05941385 -43.13551947 66.14080243 -40.30859375 77.34765625 C-40.09759033 78.17362305 -39.88658691 78.99958984 -39.66918945 79.85058594 C-39.47929443 80.61790039 -39.28939941 81.38521484 -39.09375 82.17578125 C-38.84637085 83.17206543 -38.84637085 83.17206543 -38.59399414 84.18847656 C-38.24609375 86.09765625 -38.24609375 86.09765625 -38.24609375 90.09765625 C-36.03729991 89.51606908 -33.82909151 88.93225851 -31.62109375 88.34765625 C-30.93595703 88.17008789 -30.25082031 87.99251953 -29.54492188 87.80957031 C-26.29009688 86.9561162 -23.12042813 86.05368814 -19.94140625 84.94140625 C-2.85111927 79.09143027 17.89409612 80.2538285 34.16625977 87.97460938 C42.09101982 91.88344981 48.01389531 95.72712601 53.37890625 102.97265625 C54.13429687 103.98070313 54.8896875 104.98875 55.66796875 106.02734375 C58.83060442 110.68245917 61.26245308 114.33412553 60.75390625 120.09765625 C59.70332031 120.13503906 58.65273437 120.17242187 57.5703125 120.2109375 C45.09726296 120.30688915 45.09726296 120.30688915 34.17578125 125.453125 C31.58641665 128.34755842 29.94301236 131.42223737 28.75390625 135.09765625 C28.21121094 134.82050781 27.66851562 134.54335937 27.109375 134.2578125 C26.39394531 133.89558594 25.67851562 133.53335938 24.94140625 133.16015625 C23.87986328 132.62068359 23.87986328 132.62068359 22.796875 132.0703125 C17.26611012 129.43711851 11.7658862 129.42717521 5.75390625 130.09765625 C0.64160553 131.95802769 -3.36203143 134.40465543 -6.24609375 139.09765625 C-6.95292388 141.60506227 -6.95292388 141.60506227 -7.30859375 144.22265625 C-8.03519744 148.88675994 -8.03519744 148.88675994 -10.24609375 151.09765625 C-10.59800781 150.62714844 -10.94992188 150.15664062 -11.3125 149.671875 C-11.80621094 149.04925781 -12.29992187 148.42664063 -12.80859375 147.78515625 C-13.28425781 147.17027344 -13.75992188 146.55539063 -14.25 145.921875 C-19.14802245 141.44560008 -24.77223099 140.59055822 -31.18359375 140.72265625 C-31.88581055 140.73135742 -32.58802734 140.74005859 -33.31152344 140.74902344 C-39.83708325 140.93390925 -44.699715 141.7523074 -49.62109375 146.28515625 C-50.15734375 146.88328125 -50.69359375 147.48140625 -51.24609375 148.09765625 C-51.90609375 148.09765625 -52.56609375 148.09765625 -53.24609375 148.09765625 C-53.74109375 147.08703125 -54.23609375 146.07640625 -54.74609375 145.03515625 C-58.332984 138.8086179 -64.00791893 133.73715096 -70.91015625 131.52734375 C-78.41580903 130.14670528 -86.08941624 130.43470648 -93.24609375 133.09765625 C-93.46523437 132.52917969 -93.684375 131.96070313 -93.91015625 131.375 C-98.41287476 120.41106347 -104.67476647 115.40483548 -115.24609375 110.09765625 C-122.23820632 107.22589573 -130.2912877 106.72019346 -137.46484375 109.21875 C-140.1173267 110.42535629 -142.69461405 111.69132886 -145.24609375 113.09765625 C-143.70537949 108.08315766 -140.70570353 104.71513507 -137.30859375 100.84765625 C-136.72956299 100.18523926 -136.15053223 99.52282227 -135.55395508 98.84033203 C-130.57052468 93.25348997 -125.32568419 88.4948443 -119.24609375 84.09765625 C-118.55 83.5871875 -117.85390625 83.07671875 -117.13671875 82.55078125 C-106.62366474 75.40190453 -94.28710622 74.55433572 -82.01953125 76.6484375 C-69.4423838 79.94096617 -57.31850164 85.33187375 -45.24609375 90.09765625 C-49.06611792 75.55623828 -55.00199752 61.2670392 -62.88110352 48.43481445 C-64.38633744 45.85752875 -64.62450532 44.42346658 -64.55859375 41.47265625 C-64.55472656 40.71726563 -64.55085938 39.961875 -64.546875 39.18359375 C-64.24609375 37.09765625 -64.24609375 37.09765625 -62.24609375 34.09765625 C-60.60833984 33.70126953 -60.60833984 33.70126953 -58.9375 33.296875 C-54.47179388 31.84611121 -52.73631164 29.62840372 -50.18359375 25.91015625 C-49.31583635 24.72602559 -48.44735264 23.54242683 -47.578125 22.359375 C-46.79905554 21.27337132 -46.02151173 20.18627013 -45.24609375 19.09765625 C-37.25244855 7.92266107 -24.25385863 2.76285304 -11.00488281 0.55834961 C-7.28958771 0.10298706 -3.7411522 -0.01605645 0 0 Z " fill="#C31A1A" transform="translate(145.24609375,-0.09765625)"/>
<path d="M0 0 C0.66 0 1.32 0 2 0 C3.0078125 1.57421875 3.0078125 1.57421875 4.125 3.6875 C7.16150762 8.76937033 11.30631821 11.84938881 16.96875 13.61328125 C21.65388802 14.50525945 26.24527271 14.63808265 30.75 13 C33.96160971 10.14523581 35.91869235 6.72864051 38 3 C39.7074998 4.28062485 41.37373596 5.61767557 43 7 C43 7.66 43 8.32 43 9 C43.55945313 9.2784375 44.11890625 9.556875 44.6953125 9.84375 C46.25678716 10.6271339 47.81398868 11.41908328 49.3671875 12.21875 C50.19476563 12.6415625 51.02234375 13.064375 51.875 13.5 C52.69742188 13.9228125 53.51984375 14.345625 54.3671875 14.78125 C59.88311748 17.33461818 64.27458354 18.2401022 70.375 18.125 C72.24285156 18.09792969 72.24285156 18.09792969 74.1484375 18.0703125 C75.55996094 18.03550781 75.55996094 18.03550781 77 18 C72.86872445 27.00099165 64.1679479 34.9800545 55.125 38.9375 C46.32822937 41.69187045 37.85222309 39.76004514 29.18969727 37.51147461 C10.33911428 32.6198536 -3.42814552 36.87069829 -20.6706543 44.67602539 C-30.50754686 49.11251493 -39.42876092 49.20582442 -49.61328125 45.46484375 C-53.76489418 43.66916342 -57.79674045 41.70507125 -61.8125 39.625 C-62.51777832 39.26220947 -63.22305664 38.89941895 -63.94970703 38.52563477 C-68.84612489 35.89607703 -72.92326311 32.77016116 -77 29 C-76.34 28.67 -75.68 28.34 -75 28 C-74.01 28.33 -73.02 28.66 -72 29 C-60.93430332 29.9088757 -60.93430332 29.9088757 -50.65234375 26.48828125 C-47.36630967 23.52852005 -45.15734403 19.8243826 -43 16 C-42.42894531 16.0721875 -41.85789063 16.144375 -41.26953125 16.21875 C-29.35354108 17.58274252 -18.86932585 18.71183054 -8.77734375 11.38671875 C-4.6854877 8.0374863 -1.95949745 5.02121222 0 0 Z " fill="#C31B1A" transform="translate(102,250)"/>
<path d="M0 0 C1.3951758 0.01005941 2.7903587 0.01917998 4.18554688 0.02734375 C7.5613837 0.05070594 10.93684618 0.08346332 14.3125 0.125 C15.44833456 3.84227674 14.97920026 5.59551709 13.3125 9.125 C12.6525 9.125 11.9925 9.125 11.3125 9.125 C11.10625 9.888125 10.9 10.65125 10.6875 11.4375 C5.09221645 26.44303315 -5.33867216 38.68586666 -19.890625 45.66015625 C-28.3369972 49.0927459 -38.63142275 52.97598728 -47.6875 50.125 C-50.10285015 48.4363193 -52.34738482 46.64893643 -54.57421875 44.71875 C-56.71544042 43.10392848 -58.13760795 42.73475679 -60.6875 42.125 C-61.75 39.75 -61.75 39.75 -62.6875 37.125 C-63.65425513 36.09282535 -64.65027293 35.08633241 -65.6875 34.125 C-64.90375 33.238125 -64.12 32.35125 -63.3125 31.4375 C-60.77447974 28.51222313 -58.47285219 25.46954658 -56.19750977 22.33666992 C-46.75673766 9.51178071 -34.59353092 3.20809293 -18.8918457 0.50219727 C-12.61232908 -0.23699155 -6.31231419 -0.08006525 0 0 Z " fill="#034B11" transform="translate(153.6875,-0.125)"/>
<path d="M0 0 C3.81445366 0.7096658 5.28203769 2.54471773 7.6875 5.5 C7.6875 6.49 7.6875 7.48 7.6875 8.5 C8.3475 8.5 9.0075 8.5 9.6875 8.5 C22.38601821 51.01554167 22.38601821 51.01554167 22.6875 64.5 C23.7496875 64.22285156 24.811875 63.94570312 25.90625 63.66015625 C27.33326737 63.29401364 28.76035448 62.92814278 30.1875 62.5625 C30.88359375 62.38009766 31.5796875 62.19769531 32.296875 62.00976562 C37.08587494 60.79034434 41.77287471 60.02577635 46.6875 59.5 C46.6875 64.40612327 45.58272446 65.25291893 42.4375 68.875 C38.67134892 73.26384554 38.67134892 73.26384554 35.375 78 C32.94506089 81.5999098 30.77835817 83.13638061 26.6875 84.5 C21.25158245 84.97848625 16.35165999 85.23962666 11.3125 83 C7.10761603 78.9953486 3.91673304 74.49220527 0.875 69.5625 C-1.85411023 65.74174568 -5.08406765 62.67793261 -8.484375 59.453125 C-10.3125 57.5 -10.3125 57.5 -10.3125 55.5 C-3.94819826 56.81235852 2.10871028 58.51219415 8.25 60.625 C9.06791016 60.90214844 9.88582031 61.17929688 10.72851562 61.46484375 C12.71626568 62.13905137 14.70209349 62.81892204 16.6875 63.5 C16.39746094 62.489375 16.10742188 61.47875 15.80859375 60.4375 C15.11084977 58.0048415 14.43892788 55.57027569 13.78515625 53.125 C9.98627126 39.82173482 4.30084267 26.64211267 -2.94750977 14.8371582 C-4.45274369 12.2598725 -4.69091157 10.82581033 -4.625 7.875 C-4.62113281 7.11960937 -4.61726563 6.36421875 -4.61328125 5.5859375 C-4.14651708 2.34889769 -3.26362494 0.70564863 0 0 Z " fill="#A91515" transform="translate(85.3125,33.5)"/>
<path d="M0 0 C3.81445366 0.7096658 5.28203769 2.54471773 7.6875 5.5 C7.6875 6.49 7.6875 7.48 7.6875 8.5 C8.3475 8.5 9.0075 8.5 9.6875 8.5 C13.16360114 20.13823373 16.60559416 31.77976327 19.5625 43.5625 C19.76512451 44.36333008 19.96774902 45.16416016 20.17651367 45.98925781 C21.9050485 53.00485624 22.81905483 59.68674332 22.75 66.9375 C22.74097656 68.17371094 22.73195313 69.40992187 22.72265625 70.68359375 C22.71105469 71.61300781 22.69945313 72.54242188 22.6875 73.5 C21.6975 73.5 20.7075 73.5 19.6875 73.5 C19.43355469 72.44941406 19.17960937 71.39882812 18.91796875 70.31640625 C18.57050773 68.89838965 18.22284031 67.48042361 17.875 66.0625 C17.70935547 65.37478516 17.54371094 64.68707031 17.37304688 63.97851562 C15.29461662 55.54714762 12.42273227 47.500794 9.0625 39.5 C8.72347656 38.68547363 8.38445312 37.87094727 8.03515625 37.03173828 C5.28248785 30.56421875 2.10600439 24.39506562 -1.51806641 18.37109375 C-4.29794229 13.49558139 -5.26131505 9.10600753 -4.3125 3.5 C-2.3125 0.5 -2.3125 0.5 0 0 Z " fill="#5B2B2B" transform="translate(85.3125,33.5)"/>
<path d="M0 0 C0.66 0 1.32 0 2 0 C2.495 2.97 2.495 2.97 3 6 C3.4846875 5.72285156 3.969375 5.44570312 4.46875 5.16015625 C9.4138373 2.48790715 13.39544133 1.40032562 19 1 C17.60824005 3.78351989 16.07312148 3.88549451 13.1875 4.9375 C9.65007455 6.22811165 6.92105613 7.61004499 4 10 C5.32 11.32 6.64 12.64 8 14 C7.236875 13.690625 6.47375 13.38125 5.6875 13.0625 C1.89395204 11.56272523 -0.08708276 10.78564637 -4 12 C-2.02 14.97 -2.02 14.97 0 18 C-0.33 18.66 -0.66 19.32 -1 20 C-5 15.25 -5 15.25 -5 13 C-8.465 14.98 -8.465 14.98 -12 17 C-11.71125 17.5775 -11.4225 18.155 -11.125 18.75 C-10.08333333 20.83333333 -9.04166667 22.91666667 -8 25 C-10.04119788 23.38405168 -12.04072937 21.7143618 -14 20 C-14 19.34 -14 18.68 -14 18 C-15.29585916 18.42492126 -16.5866044 18.86545882 -17.875 19.3125 C-18.59429687 19.55613281 -19.31359375 19.79976562 -20.0546875 20.05078125 C-22.33994905 20.96335547 -22.33994905 20.96335547 -24 24 C-24.66 23.67 -25.32 23.34 -26 23 C-28.17921184 23.90244325 -30.32080135 24.89684882 -32.4375 25.9375 C-38.68109339 29 -38.68109339 29 -42 29 C-42 28.34 -42 27.68 -42 27 C-39.7101766 25.9955866 -37.4183401 24.99632388 -35.125 24 C-34.47402344 23.71382812 -33.82304688 23.42765625 -33.15234375 23.1328125 C-28.2265625 21 -28.2265625 21 -26 21 C-26.33 20.175 -26.66 19.35 -27 18.5 C-28.16782809 14.4126017 -28.1458885 11.23076656 -28 7 C-25.2884971 11.06725434 -25.42132512 14.1547611 -25 19 C-22.03 18.01 -19.06 17.02 -16 16 C-16.33 15.34 -16.66 14.68 -17 14 C-17.06950541 12.45976004 -17.08452357 10.91665012 -17.0625 9.375 C-17.05347656 8.55773438 -17.04445313 7.74046875 -17.03515625 6.8984375 C-17.02355469 6.27195312 -17.01195313 5.64546875 -17 5 C-16.34 5 -15.68 5 -15 5 C-15 8.3 -15 11.6 -15 15 C-12.69 13.68 -10.38 12.36 -8 11 C-8.33 7.7 -8.66 4.4 -9 1 C-8.34 1 -7.68 1 -7 1 C-6.505 5.455 -6.505 5.455 -6 10 C-4.35 9.34 -2.7 8.68 -1 8 C-0.67 5.36 -0.34 2.72 0 0 Z " fill="#04662F" transform="translate(137,8)"/>
<path d="M0 0 C0.99 0.33 1.98 0.66 3 1 C3.20625 2.258125 3.4125 3.51625 3.625 4.8125 C4.22171718 7.78010241 4.56419232 8.70919451 7.125 10.41796875 C9.39352242 11.39981361 11.64147125 12.26235315 14 13 C14 13.66 14 14.32 14 15 C12.94941406 14.96519531 11.89882812 14.93039062 10.81640625 14.89453125 C2.84248954 14.71220518 -3.50432696 14.95091266 -11 18 C-11.99 18 -12.98 18 -14 18 C-12.94694614 15.31949927 -12.08385506 14.0628913 -9.75 12.3125 C-6.46783941 9.55250132 -4.51873952 6.52306662 -2.234375 2.92578125 C-1 1 -1 1 0 0 Z " fill="#AB1515" transform="translate(108,270)"/>
<path d="M0 0 C1.98 0.66 3.96 1.32 6 2 C6.33 4.31 6.66 6.62 7 9 C6.01 9 5.02 9 4 9 C3.731875 8.236875 3.46375 7.47375 3.1875 6.6875 C2.05575888 4.12619116 1.08776599 2.80307062 -1 1 C-0.67 0.67 -0.34 0.34 0 0 Z " fill="#1E5224" transform="translate(89,33)"/>
</svg>
