<?xml version="1.0" encoding="UTF-8"?>
<svg version="1.1" xmlns="http://www.w3.org/2000/svg" width="498" height="350">
<path d="M0 0 C7.09154707 0.15365849 12.83731895 2.30852011 19.20166016 5.38500977 C20.25998047 5.88129883 21.31830078 6.37758789 22.40869141 6.88891602 C38.62079115 15.02437115 56.78222451 28.84062981 63.20166016 46.38500977 C62.73904785 46.70663086 62.27643555 47.02825195 61.79980469 47.35961914 C28.16328948 70.07073138 28.16328948 70.07073138 3.20166016 101.38500977 C2.50773295 108.6660669 6.25428828 113.55366495 10.20166016 119.38500977 C11.78814155 121.28171895 13.31303797 122.78254246 15.20166016 124.38500977 C15.51103516 123.37374023 15.51103516 123.37374023 15.82666016 122.34204102 C17.68527693 118.34495892 20.30497606 115.36699687 23.20166016 112.07250977 C24.07624878 111.07392944 24.07624878 111.07392944 24.96850586 110.05517578 C29.61215319 104.85355358 34.44678923 100.35159022 40.20166016 96.38500977 C40.92998047 95.8577832 41.65830078 95.33055664 42.40869141 94.78735352 C57.11820585 84.98936349 77.86439874 80.1821422 95.20166016 83.38500977 C100.60378149 85.12540611 104.04033765 87.57979956 107.20166016 92.38500977 C110.9271881 99.83606566 108.63139848 112.37019496 106.20166016 120.01000977 C103.65095049 126.78533231 100.43195863 133.19146491 97.12353516 139.62329102 C85.12594735 162.99041286 83.97526775 189.09058273 81.77246094 214.83251953 C74.79427624 296.34826072 74.79427624 296.34826072 54.20166016 321.38500977 C53.53650391 322.21129883 52.87134766 323.03758789 52.18603516 323.88891602 C39.73956494 338.55157428 21.96115294 349.08756694 2.56005859 350.68481445 C-1.35575417 350.82198304 -5.25530468 350.84363643 -9.17333984 350.82250977 C-10.48044922 350.84249023 -11.78755859 350.8624707 -13.13427734 350.88305664 C-36.55824253 350.87143761 -58.32425362 339.45608264 -75.79833984 324.38500977 C-78.04562533 321.85101619 -80.01175091 319.26079108 -81.79833984 316.38500977 C-82.13865234 316.88129883 -82.47896484 317.37758789 -82.82958984 317.88891602 C-94.13125833 333.72928647 -110.22473879 338.93857976 -128.75390625 342.05786133 C-144.24019935 344.53596412 -163.2315151 345.49322683 -178.19677734 340.17797852 C-182.59746813 339.20906287 -185.55811652 340.11533651 -189.67333984 341.57250977 C-213.45959265 349.16535522 -239.22643121 351.29819943 -262.23583984 340.07250977 C-267.9435807 337.018481 -272.98950251 333.71467469 -277.79833984 329.38500977 C-278.64654297 328.62961914 -279.49474609 327.87422852 -280.36865234 327.09594727 C-301.00310276 307.63724901 -312.45263461 280.40437146 -324.77319336 255.36279297 C-337.25467589 230.06945264 -350.98934649 205.50884756 -370.61083984 185.01000977 C-375.91309378 179.46734803 -380.97359375 174.09201438 -384.79833984 167.38500977 C-385.29978516 166.51360352 -385.80123047 165.64219727 -386.31787109 164.74438477 C-389.4044808 158.520147 -390.27261988 152.86199189 -390.36083984 146.01000977 C-390.3755835 145.24881836 -390.39032715 144.48762695 -390.40551758 143.70336914 C-390.30984959 138.50178015 -389.16584728 135.53059194 -385.79833984 131.38500977 C-378.88878175 124.83911262 -369.95908628 124.16294319 -360.79833984 124.38500977 C-323.00220939 127.04608269 -288.38981703 142.60750513 -260.79833984 168.38500977 C-258.67282868 170.26003982 -256.53381112 172.11840249 -254.39208984 173.97485352 C-253.15530995 175.06916122 -251.96605853 176.21729108 -250.79833984 177.38500977 C-247.51018727 146.89963779 -245.37333741 116.58377937 -251.87646484 86.32641602 C-254.29439914 74.43688155 -254.37187588 60.35372869 -248.79833984 49.38500977 C-244.6437357 43.44085128 -240.98752649 39.18697473 -233.79833984 37.38500977 C-223.91304836 36.01382417 -215.32476709 39.69095128 -207.34130859 45.31469727 C-180.96839911 66.78572956 -165.0520814 98.13435596 -159.79833984 131.38500977 C-159.07130859 130.38083008 -158.34427734 129.37665039 -157.59521484 128.34204102 C-137.24338885 100.52924655 -115.1962386 83.30503105 -81.24560547 75.06860352 C-65.48899776 71.06189665 -56.07169293 62.65266266 -46.14257812 50.06176758 C-44.64669855 48.19585749 -43.11498063 46.36369527 -41.57568359 44.53344727 C-30.58928458 31.44477928 -20.53170655 17.78338021 -11.18896484 3.47485352 C-8.31079205 -0.85049043 -5.0065296 0.02446576 0 0 Z " fill="#050402" transform="translate(389.79833984375,-0.385009765625)"/>
<path d="M0 0 C19.08653777 8.34246022 30.88192997 29.80048451 39 48 C39.54269531 49.18722656 40.08539063 50.37445313 40.64453125 51.59765625 C43.68121848 58.66275894 45.87073889 65.7275068 47.6875 73.1875 C47.87787842 73.96311279 48.06825684 74.73872559 48.2644043 75.5378418 C51.99271141 91.80548799 53.50805735 108.43833649 55.01922607 125.02441406 C58.11640079 158.42878085 62.50713409 191.04971214 87 216 C87.68707031 216.7115625 88.37414062 217.423125 89.08203125 218.15625 C96.52044388 225.33245514 105.95898596 231.27860061 116.5 231.75 C120.09313419 231.5110948 122.61949178 231.07858879 125.5 228.875 C127.98781424 226.01401362 129.98876803 223.20307313 132 220 C132.33 220 132.66 220 133 220 C133.38397694 231.51930823 132.46448057 244.01372279 124.2578125 252.8828125 C117.75498843 258.65999955 112.15658483 259.85269475 103.44921875 259.578125 C95.83111322 258.91611715 89.40466729 254.91091176 83 251 C82.08992188 250.4534375 81.17984375 249.906875 80.2421875 249.34375 C75.46478401 246.29916743 71.21990974 242.77098317 67 239 C70.37501763 246.46056529 74.83793632 251.31373835 81.5 255.9375 C82.40770142 256.57655273 82.40770142 256.57655273 83.33374023 257.22851562 C90.74072851 262.34275023 98.57634208 266.78509936 107 270 C93.67518853 277.12652838 73.6806036 275.2319557 59.6953125 271 C40.82279385 264.25029921 28.96346609 251.81334903 19 235 C18.24396484 233.87851562 18.24396484 233.87851562 17.47265625 232.734375 C15.22521619 228.56140936 13.89082986 224.1256344 12.4375 219.625 C12.13392578 218.70460938 11.83035156 217.78421875 11.51757812 216.8359375 C5.07411613 197.18267651 3.7069424 177.9968934 3.6875 157.4375 C3.68409607 156.58672882 3.68069214 155.73595764 3.67718506 154.85940552 C3.65542605 145.35404045 4.1308347 136.26193728 5.53930664 126.84448242 C6.45114862 119.23516832 6.38837843 111.59228357 6.375 103.9375 C6.37717529 102.66179642 6.37717529 102.66179642 6.37939453 101.36032104 C6.37686209 87.89167148 5.33133141 75.10224542 2 62 C2.02618408 62.84739746 2.05236816 63.69479492 2.0793457 64.56787109 C2.64169889 86.17647018 1.54558359 107.35706446 -0.5 128.875 C-4.98560316 173.57536096 -4.98560316 173.57536096 0 218 C0.25523437 219.21816406 0.51046875 220.43632812 0.7734375 221.69140625 C4.38511142 236.51915009 12.84672383 253.80761344 25.8125 262.4375 C26.90498047 263.08525391 26.90498047 263.08525391 28.01953125 263.74609375 C29.97471422 264.98399066 31.4344203 266.30601313 33 268 C19.91003884 266.31591143 9.63166965 256.99480996 1.8125 246.875 C-2.7228953 240.34733591 -5.89442335 233.2848899 -9 226 C-9.3403125 225.21367187 -9.680625 224.42734375 -10.03125 223.6171875 C-12.0896631 218.53290715 -13.15461438 213.39369999 -14 208 C-14.18691406 206.83984375 -14.37382812 205.6796875 -14.56640625 204.484375 C-17.87885715 181.5131246 -16.20664927 158.53573517 -13.85424805 135.5838623 C-11.85153324 116.02944328 -10.47362638 96.66441767 -10.4375 77 C-10.42928223 75.99084534 -10.42106445 74.98169067 -10.41259766 73.94195557 C-10.335101 61.19035123 -11.59728403 49.30609331 -14.09399414 36.80761719 C-15.15951966 31.3951954 -15.60920866 26.14003732 -15.5 20.625 C-15.51546875 19.7896875 -15.5309375 18.954375 -15.546875 18.09375 C-15.50493425 11.40420095 -13.72523203 6.00715259 -9.1875 1 C-5.76418761 -0.56494281 -3.75934268 -0.54571103 0 0 Z " fill="#FBF6BF" transform="translate(166,51)"/>
<path d="M0 0 C0.83781006 -0.01393799 1.67562012 -0.02787598 2.53881836 -0.04223633 C3.3303833 -0.03603271 4.12194824 -0.0298291 4.9375 -0.0234375 C5.64777344 -0.02005371 6.35804688 -0.01666992 7.08984375 -0.01318359 C9.59814042 0.49655461 10.4912381 1.32915166 12 3.375 C12.50029959 13.21422532 6.48676761 21.79196888 2.01904297 30.22705078 C-7.48652006 48.40400499 -9.81718739 68.14423168 -11.75 88.3125 C-11.95839052 90.36275712 -12.1680228 92.41288842 -12.37890625 94.46289062 C-13.2073884 102.61560543 -13.99103966 110.76417173 -14.53125 118.94140625 C-16.69715097 151.32551073 -21.78122442 189.40229109 -43 215.375 C-43.38929688 215.931875 -43.77859375 216.48875 -44.1796875 217.0625 C-52.48088628 228.19951203 -66.69499544 234.74901226 -80 237.375 C-80.99 237.045 -81.98 236.715 -83 236.375 C-82.07058594 235.79492188 -81.14117187 235.21484375 -80.18359375 234.6171875 C-67.085148 226.37644349 -56.28315201 218.72974418 -52.41015625 202.8203125 C-51.88971946 200.13076328 -51.88971946 200.13076328 -52 196.375 C-52.43570313 197.08785156 -52.87140625 197.80070313 -53.3203125 198.53515625 C-63.81260634 215.40912665 -77.74129623 226.09771293 -97.25390625 230.93359375 C-107.39896977 232.56430809 -118.89632632 232.6140591 -128 227.375 C-130.29296875 225.234375 -130.29296875 225.234375 -132 223.375 C-130.98421875 222.97410156 -129.9684375 222.57320312 -128.921875 222.16015625 C-119.4995005 218.31949573 -111.76697688 214.0584779 -104 207.375 C-103.23558594 206.72273437 -102.47117187 206.07046875 -101.68359375 205.3984375 C-84.97328211 189.91374801 -72.80386371 166.7757403 -65.6862793 145.38793945 C-64.84847392 142.93055583 -63.94881988 140.49850213 -63.05078125 138.0625 C-57.85533053 123.80847067 -53.86238931 109.2871397 -50.5 94.5 C-39.02743031 44.05080848 -39.02743031 44.05080848 -27 22.375 C-27.66 22.375 -28.32 22.375 -29 22.375 C-29.37898438 23.42880859 -29.37898438 23.42880859 -29.765625 24.50390625 C-31.13761107 27.69507637 -32.85580344 30.40145762 -34.75 33.3125 C-38.97332057 40.00174123 -42.19126456 46.97918791 -45 54.375 C-45.3705249 55.31674072 -45.7410498 56.25848145 -46.12280273 57.22875977 C-49.65300444 66.56898536 -51.90968557 75.99378005 -54.07727051 85.72232056 C-62.8910607 124.9387502 -76.04124923 163.71005562 -103 194.375 C-103.57105469 195.02984375 -104.14210938 195.6846875 -104.73046875 196.359375 C-111.59728069 203.73181917 -120.07983829 208.27430543 -129.375 211.875 C-130.05296631 212.14256104 -130.73093262 212.41012207 -131.42944336 212.68579102 C-135.32525147 214.11127517 -138.04065476 214.77200302 -142 213.375 C-152.24225664 206.47260965 -158.17448223 193.95252494 -162.375 182.6875 C-163.15792235 178.53801154 -163.17173607 174.58253368 -163 170.375 C-162.38253906 170.53226563 -161.76507813 170.68953125 -161.12890625 170.8515625 C-146.03072494 173.37735063 -132.80300604 171.91467005 -120.11010742 163.15844727 C-112.2641075 157.43113072 -106.51484964 150.29837581 -101 142.375 C-100.32710938 141.4159375 -99.65421875 140.456875 -98.9609375 139.46875 C-87.8646663 122.48186569 -80.00929149 103.07985314 -73.2890625 84.01171875 C-72.4460682 81.633453 -71.58729823 79.26070522 -70.7109375 76.89453125 C-68.50920544 70.91743656 -66.57821866 64.98593362 -65 58.8125 C-59.59422296 38.00779634 -49.94033223 19.69770252 -31 8.375 C-20.92349316 2.53030665 -11.5964272 0.12743327 0 0 Z " fill="#FAE892" transform="translate(472,97.625)"/>
<path d="M0 0 C9.03777882 1.45250017 16.27691759 6.91749753 23.1875 12.625 C24.0527832 13.32568604 24.0527832 13.32568604 24.93554688 14.04052734 C26.54296875 15.4140625 26.54296875 15.4140625 29 18 C29 19.32 29 20.64 29 22 C26.97545435 23.8454629 25.02248148 25.40718678 22.8125 27 C5.90127775 39.75600396 -18.53522466 58.90445902 -22 81 C-22.81163128 96.88924314 -20.91260776 111.60358223 -17.01953125 126.99609375 C-16.75123001 128.05696449 -16.75123001 128.05696449 -16.47750854 129.13926697 C-15.57210641 132.69777627 -14.64725521 136.24983479 -13.69335938 139.7956543 C-10.29823095 152.5692203 -10.29228733 159.77566497 -15.4375 172 C-15.8897998 173.09779785 -16.34209961 174.1955957 -16.80810547 175.32666016 C-22.45138617 188.78977486 -28.74561015 201.61960168 -38 213 C-38.70898438 213.87269531 -39.41796875 214.74539062 -40.1484375 215.64453125 C-48.96817044 225.96516612 -61.74421225 235.28296766 -75.453125 237.578125 C-79.93947189 237.73282662 -83.04262624 237.488456 -87.0625 235.4375 C-94.11221089 226.56850888 -93.24037894 215.87720712 -93.25 205.1875 C-93.25100708 204.41622772 -93.25201416 203.64495544 -93.25305176 202.85031128 C-93.23208874 178.90838128 -93.12855484 151.38937731 -84 129 C-83.59894349 127.15129432 -83.226459 125.29627261 -82.875 123.4375 C-77.27989515 98.67916102 -64.07346991 76.44753341 -47 58 C-45.51953978 56.33448226 -44.04037449 54.66781258 -42.5625 53 C-39.48134297 49.56517973 -36.29802083 46.28915717 -33 43.0625 C-20.29774857 30.4579582 -9.22432137 15.33056227 0 0 Z " fill="#FCE200" transform="translate(398,21)"/>
<path d="M0 0 C25.24984851 8.84087367 46.32402034 22.66572084 65.47949219 41.18652344 C66.27355469 41.95222656 67.06761719 42.71792969 67.88574219 43.50683594 C77.22669007 52.67856375 77.22669007 52.67856375 77.61752319 59.64788818 C77.62401886 60.56781555 77.63051453 61.48774292 77.63720703 62.43554688 C77.64746918 63.48474304 77.65773132 64.53393921 77.66830444 65.6149292 C77.67560577 66.74714905 77.6829071 67.8793689 77.69042969 69.04589844 C77.71853069 71.46647774 77.7471953 73.88705055 77.77636719 76.30761719 C77.81735466 80.10530182 77.85425645 83.90286956 77.88085938 87.70068359 C78.02149126 106.1937768 78.16961318 123.25986648 86.47949219 140.18652344 C86.93324219 141.12109375 87.38699219 142.05566406 87.85449219 143.01855469 C95.23170152 157.3519913 106.15031589 168.31609133 119.46386719 177.14355469 C122.25812671 179.03655693 124.87616388 181.04118807 127.47949219 183.18652344 C110.97213148 184.06561365 96.37991491 179.28334256 83.75634766 168.32861328 C72.83075668 158.36735333 65.01392182 146.76447428 57.47949219 134.18652344 C56.53589844 132.63771484 56.53589844 132.63771484 55.57324219 131.05761719 C52.45885161 125.8551693 49.60843265 120.55568759 46.91699219 115.12402344 C24.12240908 68.59654088 24.12240908 68.59654088 -13.52050781 34.18652344 C-12.76382813 34.78207031 -12.00714844 35.37761719 -11.22753906 35.99121094 C11.42449694 54.36126033 24.39327586 83.80785144 37.04199219 109.31152344 C57.27731527 152.25647233 57.27731527 152.25647233 91.01074219 184.24121094 C91.49542969 184.55316406 91.98011719 184.86511719 92.47949219 185.18652344 C92.47949219 185.51652344 92.47949219 185.84652344 92.47949219 186.18652344 C76.98086171 185.20248341 66.60966404 176.41280464 56.47949219 165.18652344 C41.90154377 147.68767461 31.35783498 127.0642413 20.47949219 107.18652344 C3.81786116 76.76093634 -13.1636504 47.67570318 -37.17285156 22.39355469 C-47.64504697 11.24474167 -47.64504697 11.24474167 -49.08300781 2.93652344 C-48.52050781 0.18652344 -48.52050781 0.18652344 -46.14550781 -2.12597656 C-34.20844471 -9.79980284 -12.67484923 -4.09072042 0 0 Z " fill="#FBF9E5" transform="translate(61.5205078125,144.8134765625)"/>
<path d="M0 0 C2.64 0.66 5.28 1.32 8 2 C6.94486796 6.22052818 5.87693264 7.68120959 3.125 10.9375 C2.31546875 11.90171875 1.5059375 12.8659375 0.671875 13.859375 C0.0212207 14.62411133 0.0212207 14.62411133 -0.64257812 15.40429688 C-2.03405003 17.04002716 -3.41624301 18.6832389 -4.796875 20.328125 C-7.51710965 23.56424194 -10.25796005 26.78234226 -13 30 C-13.72058594 30.85851562 -14.44117188 31.71703125 -15.18359375 32.6015625 C-15.80363281 33.33117188 -16.42367187 34.06078125 -17.0625 34.8125 C-17.58972656 35.43769531 -18.11695313 36.06289063 -18.66015625 36.70703125 C-20 38 -20 38 -22 38 C-22.30744141 38.80050781 -22.30744141 38.80050781 -22.62109375 39.6171875 C-24.57832646 42.99937434 -27.2596965 45.43037488 -30.0625 48.125 C-34.0044894 51.69553366 -34.0044894 51.69553366 -37 56 C-37.66 56 -38.32 56 -39 56 C-39.22429687 56.54527344 -39.44859375 57.09054688 -39.6796875 57.65234375 C-41.39949306 60.71034121 -43.71300845 63.05106169 -46.125 65.5625 C-51.26459871 71.05447081 -55.76830118 76.77046727 -60 83 C-60.72960937 84.04542969 -61.45921875 85.09085937 -62.2109375 86.16796875 C-87.12273751 122.66157053 -90.66372861 171.06910694 -91.71679688 214.06005859 C-92.35242097 239.81342807 -92.35242097 239.81342807 -101.3125 249.5 C-105.82386282 252.01796995 -109.60098081 251.58427725 -114.421875 250.41015625 C-125.43556883 246.69902029 -131.76654618 237.92262845 -137 228 C-137.57621094 226.94941406 -138.15242188 225.89882812 -138.74609375 224.81640625 C-147.38122795 208.45607673 -150.70918257 191.06130455 -154 173 C-154.13567383 172.28537598 -154.27134766 171.57075195 -154.41113281 170.83447266 C-155.15060955 166.89649865 -155.65331478 162.99132475 -156 159 C-156.10779785 157.87416504 -156.10779785 157.87416504 -156.21777344 156.72558594 C-157.37490176 143.16532183 -155.26454538 134.77446755 -147 124 C-146.08927734 122.72769531 -146.08927734 122.72769531 -145.16015625 121.4296875 C-140.85482423 115.61495673 -135.93298477 110.28301504 -131 105 C-130.23945313 104.17371094 -129.47890625 103.34742187 -128.6953125 102.49609375 C-113.9658873 87.06641719 -96.09434096 77.89312823 -75.66894531 72.36962891 C-53.82319634 66.39296174 -42.57815118 56.43078199 -28.85546875 38.671875 C-26.43331982 35.5405798 -23.95542452 32.4585382 -21.46240234 29.38354492 C-13.80781637 19.92867288 -6.71279633 10.14547628 0 0 Z " fill="#FCF26A" transform="translate(388,17)"/>
<path d="M0 0 C8.06268525 9.90709037 16.59470613 24.94366173 18.5625 37.625 C17.77338866 42.35966806 16.2332204 46.74547063 14 51 C13.01 51.495 13.01 51.495 12 52 C10.76834308 47.82457103 9.54180599 43.64767905 8.31958008 39.46948242 C7.90489897 38.05437713 7.48892682 36.63964939 7.0715332 35.2253418 C-0.55192103 9.38265758 -0.55192103 9.38265758 0 0 Z " fill="#EED502" transform="translate(379,113)"/>
<path d="M0 0 C0.66 0.99 1.32 1.98 2 3 C0.56717148 5.27390187 -0.87100533 7.54410141 -2.3125 9.8125 C-2.71662109 10.45509766 -3.12074219 11.09769531 -3.53710938 11.75976562 C-3.93349609 12.38173828 -4.32988281 13.00371094 -4.73828125 13.64453125 C-5.28029175 14.50075073 -5.28029175 14.50075073 -5.83325195 15.37426758 C-7.09226416 17.12855974 -8.36997109 18.58240862 -10 20 C-10.66 20 -11.32 20 -12 20 C-13.69774938 21.29352333 -15.36739286 22.62517293 -17 24 C-15.05850218 19.30614352 -11.48979658 15.78913571 -8.1640625 12.04101562 C-4.86740801 8.24717547 -2.37212781 4.43509203 0 0 Z " fill="#2E2B0F" transform="translate(396,19)"/>
<path d="M0 0 C0.66 0 1.32 0 2 0 C1.71125 0.70125 1.4225 1.4025 1.125 2.125 C-0.02133588 5.05452503 -1.02625654 8.00921653 -2 11 C-2.99 11 -3.98 11 -5 11 C-5 7.63596525 -4.38119947 6.59907083 -2.625 3.8125 C-2.18414062 3.09707031 -1.74328125 2.38164063 -1.2890625 1.64453125 C-0.65097656 0.83048828 -0.65097656 0.83048828 0 0 Z " fill="#4C492E" transform="translate(443,120)"/>
<path d="M0 0 C0.33 0.99 0.66 1.98 1 3 C-0.375 4.5 -0.375 4.5 -2 6 C-2.66 6 -3.32 6 -4 6 C-5.69774938 7.29352333 -7.36739286 8.62517293 -9 10 C-6.83841857 5.34428616 -4.87207759 2.01603211 0 0 Z " fill="#22200D" transform="translate(388,33)"/>
<path d="M0 0 C4.67105792 1.55701931 8.08705685 4.08447373 12 7 C11.34 7.66 10.68 8.32 10 9 C8.33043913 7.69118353 6.66441696 6.37785174 5 5.0625 C4.071875 4.33160156 3.14375 3.60070312 2.1875 2.84765625 C1.465625 2.23792969 0.74375 1.62820312 0 1 C0 0.67 0 0.34 0 0 Z " fill="#42402F" transform="translate(46,178)"/>
<path d="M0 0 C2.15377564 2.62198774 3.40072174 4.64404172 4 8 C3.34 8 2.68 8 2 8 C1.67 9.32 1.34 10.64 1 12 C-0.3271261 8.0186217 -0.06915913 4.14954773 0 0 Z " fill="#B8A609" transform="translate(379,113)"/>
<path d="M0 0 C0.66 0.33 1.32 0.66 2 1 C2 1.99 2 2.98 2 4 C-1.3 4.66 -4.6 5.32 -8 6 C-5.36435544 3.36435544 -3.27929831 1.68169144 0 0 Z " fill="#BCB174" transform="translate(397,329)"/>
<path d="M0 0 C0.33 0.99 0.66 1.98 1 3 C0.01 4.485 0.01 4.485 -1 6 C-1.66 6 -2.32 6 -3 6 C-3.99 6.495 -3.99 6.495 -5 7 C-3.75023244 3.34683329 -3.32901247 2.21934164 0 0 Z " fill="#1E1C13" transform="translate(439,129)"/>
</svg>
